<svg width="40" height="39" viewBox="0 0 40 39" fill="none" xmlns="http://www.w3.org/2000/svg">
<rect x="0.666748" width="38.6667" height="38.6667" rx="19.3333" fill="#207DBB"/>
<g clip-path="url(#clip0_747_588)">
<path d="M19.9999 11.4082C22.5826 11.4082 22.8857 11.4198 23.9065 11.4658C24.8505 11.508 25.3609 11.6654 25.7025 11.7997C26.1553 11.9762 26.4776 12.1834 26.8153 12.5211C27.153 12.8588 27.3641 13.1812 27.5368 13.634C27.6673 13.9755 27.8284 14.4859 27.8706 15.4299C27.9167 16.4507 27.9282 16.7539 27.9282 19.3365C27.9282 21.9192 27.9167 22.2223 27.8706 23.2431C27.8284 24.1871 27.6711 24.6975 27.5368 25.039C27.3603 25.4919 27.153 25.8142 26.8153 26.1519C26.4776 26.4896 26.1553 26.7007 25.7025 26.8734C25.3609 27.0038 24.8505 27.165 23.9065 27.2072C22.8857 27.2533 22.5826 27.2648 19.9999 27.2648C17.4173 27.2648 17.1141 27.2533 16.0933 27.2072C15.1493 27.165 14.6389 27.0077 14.2974 26.8734C13.8446 26.6968 13.5222 26.4896 13.1845 26.1519C12.8468 25.8142 12.6358 25.4919 12.4631 25.039C12.3326 24.6975 12.1714 24.1871 12.1292 23.2431C12.0832 22.2223 12.0716 21.9192 12.0716 19.3365C12.0716 16.7539 12.0832 16.4507 12.1292 15.4299C12.1714 14.4859 12.3288 13.9755 12.4631 13.634C12.6396 13.1812 12.8468 12.8588 13.1845 12.5211C13.5222 12.1834 13.8446 11.9724 14.2974 11.7997C14.6389 11.6692 15.1493 11.508 16.0933 11.4658C17.1141 11.4159 17.4211 11.4082 19.9999 11.4082ZM19.9999 9.66602C17.3751 9.66602 17.045 9.67753 16.0128 9.72358C14.9843 9.76963 14.282 9.93464 13.668 10.1726C13.031 10.4182 12.4938 10.752 11.9565 11.2893C11.4193 11.8265 11.0892 12.3676 10.8398 13.0008C10.6019 13.6148 10.4369 14.3171 10.3908 15.3494C10.3448 16.3778 10.3333 16.7078 10.3333 19.3327C10.3333 21.9575 10.3448 22.2876 10.3908 23.3198C10.4369 24.3483 10.6019 25.0506 10.8398 25.6684C11.0854 26.3054 11.4193 26.8427 11.9565 27.3799C12.4938 27.9172 13.0349 28.2472 13.668 28.4966C14.282 28.7346 14.9843 28.8996 16.0166 28.9456C17.0489 28.9917 17.3751 29.0032 20.0038 29.0032C22.6325 29.0032 22.9586 28.9917 23.9909 28.9456C25.0194 28.8996 25.7216 28.7346 26.3395 28.4966C26.9765 28.251 27.5138 27.9172 28.051 27.3799C28.5883 26.8427 28.9183 26.3016 29.1677 25.6684C29.4056 25.0544 29.5707 24.3521 29.6167 23.3198C29.6628 22.2876 29.6743 21.9614 29.6743 19.3327C29.6743 16.704 29.6628 16.3778 29.6167 15.3455C29.5707 14.3171 29.4056 13.6148 29.1677 12.997C28.9221 12.3599 28.5883 11.8227 28.051 11.2854C27.5138 10.7482 26.9727 10.4182 26.3395 10.1687C25.7255 9.9308 25.0232 9.76579 23.9909 9.71974C22.9548 9.67753 22.6248 9.66602 19.9999 9.66602Z" fill="white"/>
<path d="M19.9999 11.4082C22.5826 11.4082 22.8857 11.4198 23.9065 11.4658C24.8505 11.508 25.3609 11.6654 25.7025 11.7997C26.1553 11.9762 26.4776 12.1834 26.8153 12.5211C27.153 12.8588 27.3641 13.1812 27.5368 13.634C27.6673 13.9755 27.8284 14.4859 27.8706 15.4299C27.9167 16.4507 27.9282 16.7539 27.9282 19.3365C27.9282 21.9192 27.9167 22.2223 27.8706 23.2431C27.8284 24.1871 27.6711 24.6975 27.5368 25.039C27.3603 25.4919 27.153 25.8142 26.8153 26.1519C26.4776 26.4896 26.1553 26.7007 25.7025 26.8734C25.3609 27.0038 24.8505 27.165 23.9065 27.2072C22.8857 27.2533 22.5826 27.2648 19.9999 27.2648C17.4173 27.2648 17.1141 27.2533 16.0933 27.2072C15.1493 27.165 14.6389 27.0077 14.2974 26.8734C13.8446 26.6968 13.5222 26.4896 13.1845 26.1519C12.8468 25.8142 12.6358 25.4919 12.4631 25.039C12.3326 24.6975 12.1714 24.1871 12.1292 23.2431C12.0832 22.2223 12.0716 21.9192 12.0716 19.3365C12.0716 16.7539 12.0832 16.4507 12.1292 15.4299C12.1714 14.4859 12.3288 13.9755 12.4631 13.634C12.6396 13.1812 12.8468 12.8588 13.1845 12.5211C13.5222 12.1834 13.8446 11.9724 14.2974 11.7997C14.6389 11.6692 15.1493 11.508 16.0933 11.4658C17.1141 11.4159 17.4211 11.4082 19.9999 11.4082Z" fill="white"/>
<path d="M19.9999 14.3711C17.2599 14.3711 15.0342 16.593 15.0342 19.3368C15.0342 22.0806 17.2561 24.3025 19.9999 24.3025C22.7437 24.3025 24.9656 22.0806 24.9656 19.3368C24.9656 16.593 22.7437 14.3711 19.9999 14.3711ZM19.9999 22.5565C18.2193 22.5565 16.7764 21.1136 16.7764 19.333C16.7764 17.5524 18.2193 16.1095 19.9999 16.1095C21.7805 16.1095 23.2234 17.5524 23.2234 19.333C23.2234 21.1136 21.7805 22.5565 19.9999 22.5565Z" fill="#207DBB"/>
<path d="M25.1614 15.3305C25.8014 15.3305 26.3203 14.8117 26.3203 14.1716C26.3203 13.5316 25.8014 13.0127 25.1614 13.0127C24.5213 13.0127 24.0024 13.5316 24.0024 14.1716C24.0024 14.8117 24.5213 15.3305 25.1614 15.3305Z" fill="#207DBB"/>
</g>
<defs>
<clipPath id="clip0_747_588">
<rect width="19.3333" height="19.3333" fill="white" transform="translate(10.3333 9.66602)"/>
</clipPath>
</defs>
</svg>
