<svg width="39" height="39" viewBox="0 0 39 39" fill="none" xmlns="http://www.w3.org/2000/svg">
<rect width="38.6667" height="38.6667" rx="19.3333" fill="#207DBB"/>
<g clip-path="url(#clip0_747_590)">
<path d="M27.5729 9.66602H11.0939C10.7154 9.66602 10.3524 9.81638 10.0848 10.084C9.81711 10.3517 9.66675 10.7147 9.66675 11.0932V27.5722C9.66675 27.9507 9.81711 28.3137 10.0848 28.5813C10.3524 28.849 10.7154 28.9993 11.0939 28.9993H27.5729C27.9514 28.9993 28.3144 28.849 28.5821 28.5813C28.8497 28.3137 29.0001 27.9507 29.0001 27.5722V11.0932C29.0001 10.7147 28.8497 10.3517 28.5821 10.084C28.3144 9.81638 27.9514 9.66602 27.5729 9.66602ZM15.4292 26.1356H12.5224V16.9026H15.4292V26.1356ZM13.9738 15.6231C13.6441 15.6212 13.3223 15.5218 13.0491 15.3372C12.7758 15.1526 12.5634 14.8913 12.4386 14.5861C12.3137 14.2809 12.2821 13.9456 12.3477 13.6225C12.4132 13.2993 12.573 13.0028 12.8069 12.7705C13.0408 12.5381 13.3383 12.3801 13.6619 12.3167C13.9854 12.2532 14.3205 12.287 14.6249 12.4138C14.9293 12.5405 15.1893 12.7547 15.3721 13.0291C15.5549 13.3035 15.6523 13.6259 15.652 13.9556C15.6551 14.1763 15.6138 14.3955 15.5304 14.5999C15.447 14.8043 15.3233 14.9899 15.1667 15.1455C15.0101 15.3011 14.8238 15.4235 14.6188 15.5056C14.4139 15.5877 14.1945 15.6276 13.9738 15.6231ZM26.143 26.1437H23.2377V21.0995C23.2377 19.6119 22.6053 19.1528 21.789 19.1528C20.9271 19.1528 20.0812 19.8026 20.0812 21.1371V26.1437H17.1745V16.9093H19.9698V18.1888H20.0074C20.288 17.6209 21.2708 16.6502 22.7705 16.6502C24.3923 16.6502 26.1444 17.6128 26.1444 20.4323L26.143 26.1437Z" fill="white"/>
</g>
<defs>
<clipPath id="clip0_747_590">
<rect width="19.3333" height="19.3333" fill="white" transform="translate(9.66675 9.66602)"/>
</clipPath>
</defs>
</svg>
