<svg width="181" height="55" viewBox="0 0 181 55" fill="none" xmlns="http://www.w3.org/2000/svg">
<g clip-path="url(#clip0_747_556)">
<path d="M21.3545 15.8552C25.6637 15.8552 29.157 12.3618 29.157 8.05258C29.157 3.74334 25.6637 0.25 21.3545 0.25C17.0452 0.25 13.5519 3.74334 13.5519 8.05258C13.5519 12.3618 17.0452 15.8552 21.3545 15.8552Z" fill="#207DBB"/>
<path d="M43.9671 7.67639L43.9409 7.59277C43.9409 7.59277 38.9239 15.4319 27.8079 19.4926C13.7706 24.656 0.0625 23.1509 0.0625 23.1509C16.3523 29.0721 23.9406 41.9649 27.4107 54.0477C37.2776 45.7643 41.9707 36.2789 44.1918 28.7951C46.2304 21.8914 46.1521 14.5351 43.9671 7.67639Z" fill="#207DBB"/>
</g>
<path d="M69.0995 30.8687C68.8023 31.8697 68.3331 32.7065 67.6918 33.3791C67.0505 34.0516 66.2919 34.5521 65.416 34.8806C64.5402 35.2091 63.5782 35.3733 62.5303 35.3733C60.9975 35.3733 59.668 35.0526 58.5418 34.4114C57.4313 33.7701 56.5711 32.8551 55.9611 31.6664C55.3667 30.4777 55.0695 29.0543 55.0695 27.3964C55.0695 25.7384 55.3667 24.3151 55.9611 23.1264C56.5711 21.9377 57.4313 21.0227 58.5418 20.3814C59.668 19.7401 60.9818 19.4195 62.4834 19.4195C63.547 19.4195 64.5089 19.5681 65.3691 19.8653C66.2294 20.1468 66.9567 20.5848 67.551 21.1791C68.161 21.7735 68.6068 22.5242 68.8883 23.4314L65.9557 24.6749C65.6898 23.7364 65.2831 23.0717 64.7357 22.6806C64.1882 22.274 63.4844 22.0706 62.6241 22.0706C61.7795 22.0706 61.0366 22.274 60.3953 22.6806C59.7697 23.0873 59.2848 23.6895 58.9407 24.4872C58.5966 25.2692 58.4245 26.239 58.4245 27.3964C58.4245 28.5382 58.5809 29.5079 58.8938 30.3056C59.2222 31.1033 59.6993 31.7055 60.3249 32.1121C60.9506 32.5188 61.717 32.7221 62.6241 32.7221C63.4687 32.7221 64.1961 32.4953 64.8061 32.0418C65.4317 31.5882 65.8696 30.9 66.1199 29.9772L69.0995 30.8687ZM78.217 27.6545C78.217 26.9819 78.0215 26.4579 77.6305 26.0826C77.2551 25.7072 76.7546 25.5195 76.129 25.5195C75.5502 25.5195 75.0419 25.6681 74.604 25.9652C74.166 26.2624 73.8454 26.7551 73.642 27.4433L70.897 26.5987C71.1629 25.5664 71.7417 24.7374 72.6332 24.1118C73.5404 23.4861 74.7525 23.1733 76.2697 23.1733C77.302 23.1733 78.2014 23.3376 78.9678 23.666C79.7342 23.9788 80.3286 24.4559 80.7509 25.0972C81.1888 25.7384 81.4078 26.544 81.4078 27.5137V32.2764C81.4078 32.8707 81.6893 33.1679 82.2524 33.1679C82.5183 33.1679 82.7685 33.1288 83.0032 33.0506L82.8155 35.0448C82.4088 35.2482 81.9005 35.3498 81.2905 35.3498C80.743 35.3498 80.2503 35.256 79.8124 35.0683C79.3745 34.8806 79.0304 34.5991 78.7801 34.2237C78.5298 33.8327 78.4047 33.3478 78.4047 32.7691V32.6752L78.9678 32.5814C78.8739 33.1757 78.6159 33.6841 78.1936 34.1064C77.7713 34.513 77.2551 34.8259 76.6451 35.0448C76.0507 35.2638 75.4329 35.3733 74.7916 35.3733C73.994 35.3733 73.3058 35.256 72.727 35.0214C72.1483 34.7711 71.7026 34.4114 71.3897 33.9421C71.0769 33.4729 70.9205 32.8942 70.9205 32.206C70.9205 31.3301 71.202 30.6184 71.7651 30.071C72.3282 29.5079 73.1337 29.1247 74.1817 28.9214L78.5924 28.0299L78.5689 30.0241L75.7536 30.5871C75.2218 30.6966 74.8151 30.8452 74.5336 31.0329C74.2677 31.205 74.1347 31.4943 74.1347 31.901C74.1347 32.292 74.2755 32.5892 74.557 32.7925C74.8542 32.9959 75.2061 33.0975 75.6128 33.0975C75.9413 33.0975 76.2619 33.0584 76.5747 32.9802C76.8875 32.902 77.1691 32.7769 77.4193 32.6048C77.6696 32.4328 77.8651 32.1982 78.0059 31.901C78.1466 31.6038 78.217 31.2441 78.217 30.8218V27.6545ZM85.0025 35.1387V23.4079H87.7944L88.0056 25.7072C88.3184 24.8938 88.772 24.2682 89.3663 23.8303C89.9763 23.3923 90.7349 23.1733 91.6421 23.1733C91.908 23.1733 92.1504 23.1968 92.3694 23.2437C92.5884 23.2906 92.7683 23.3532 92.909 23.4314L92.5336 26.1295C92.3772 26.0669 92.1817 26.02 91.9471 25.9887C91.7281 25.9574 91.4388 25.9418 91.079 25.9418C90.6098 25.9418 90.1562 26.0591 89.7183 26.2937C89.2803 26.5127 88.9206 26.8568 88.639 27.326C88.3575 27.7796 88.2167 28.3583 88.2167 29.0622V35.1387H85.0025ZM100.114 35.3733C98.8786 35.3733 97.7994 35.1309 96.8766 34.646C95.9694 34.1611 95.2656 33.4651 94.765 32.5579C94.2645 31.6507 94.0143 30.5559 94.0143 29.2733C94.0143 27.9907 94.2645 26.8959 94.765 25.9887C95.2656 25.0815 95.9616 24.3855 96.8531 23.9006C97.7603 23.4158 98.7926 23.1733 99.95 23.1733C101.139 23.1733 102.148 23.4158 102.977 23.9006C103.806 24.3699 104.439 25.019 104.877 25.8479C105.315 26.6613 105.534 27.5919 105.534 28.6398C105.534 28.9527 105.526 29.2498 105.51 29.5314C105.495 29.8129 105.471 30.0632 105.44 30.2822H96.0789V28.0533H104.032L102.484 28.6164C102.484 27.631 102.257 26.8724 101.803 26.3406C101.366 25.8088 100.74 25.5429 99.9266 25.5429C99.3322 25.5429 98.8161 25.6837 98.3781 25.9652C97.9558 26.2468 97.6352 26.6691 97.4162 27.2322C97.1972 27.7796 97.0877 28.4756 97.0877 29.3202C97.0877 30.1492 97.205 30.8374 97.4396 31.3848C97.6899 31.9166 98.034 32.3155 98.472 32.5814C98.9255 32.8473 99.4652 32.9802 100.091 32.9802C100.779 32.9802 101.334 32.8473 101.757 32.5814C102.179 32.3155 102.507 31.9479 102.742 31.4787L105.299 32.4641C105.049 33.0741 104.666 33.598 104.15 34.036C103.649 34.4739 103.047 34.8102 102.343 35.0448C101.655 35.2638 100.912 35.3733 100.114 35.3733ZM120.085 22.2583H111.732V26.1999H118.325V28.8041H111.732V35.1387H108.495V19.6541H120.085V22.2583ZM124.151 21.7187C123.478 21.7187 122.977 21.578 122.649 21.2964C122.321 20.9992 122.156 20.5691 122.156 20.006C122.156 19.4273 122.321 18.9972 122.649 18.7157C122.977 18.4185 123.478 18.2699 124.151 18.2699C124.823 18.2699 125.324 18.4185 125.652 18.7157C125.981 18.9972 126.145 19.4273 126.145 20.006C126.145 20.5691 125.981 20.9992 125.652 21.2964C125.324 21.578 124.823 21.7187 124.151 21.7187ZM125.746 23.4079V35.1387H122.532V23.4079H125.746ZM129.153 35.1387V23.4079H132.039L132.227 26.9272L131.828 26.5518C132.015 25.7854 132.313 25.1519 132.719 24.6514C133.126 24.1509 133.619 23.7833 134.197 23.5487C134.792 23.2985 135.441 23.1733 136.145 23.1733C136.958 23.1733 137.677 23.3297 138.303 23.6426C138.944 23.9554 139.445 24.4324 139.805 25.0737C140.18 25.6993 140.368 26.4892 140.368 27.4433V35.1387H137.153V28.3583C137.153 27.3573 136.958 26.6691 136.567 26.2937C136.176 25.9027 135.668 25.7072 135.042 25.7072C134.604 25.7072 134.174 25.8167 133.752 26.0356C133.345 26.239 133.009 26.5752 132.743 27.0445C132.492 27.5137 132.367 28.1393 132.367 28.9214V35.1387H129.153ZM148.113 35.3733C147.144 35.3733 146.275 35.1309 145.509 34.646C144.758 34.1611 144.164 33.4651 143.726 32.5579C143.304 31.6507 143.093 30.5637 143.093 29.2968C143.093 27.9986 143.319 26.8959 143.773 25.9887C144.226 25.0659 144.836 24.3699 145.603 23.9006C146.385 23.4158 147.261 23.1733 148.231 23.1733C149.263 23.1733 150.115 23.4705 150.788 24.0649C151.46 24.6592 151.898 25.4256 152.102 26.3641L151.797 26.7395V18.2699H155.011V35.1387H152.125L151.914 31.5725L152.313 31.7602C152.203 32.4953 151.953 33.1366 151.562 33.6841C151.171 34.2159 150.678 34.6303 150.084 34.9275C149.49 35.2247 148.833 35.3733 148.113 35.3733ZM149.052 32.9098C149.615 32.9098 150.1 32.7691 150.506 32.4875C150.913 32.1903 151.226 31.7602 151.445 31.1971C151.679 30.6341 151.797 29.9615 151.797 29.1795C151.797 28.4287 151.687 27.7952 151.468 27.2791C151.249 26.7473 150.936 26.3406 150.53 26.0591C150.123 25.7776 149.646 25.6368 149.099 25.6368C148.223 25.6368 147.535 25.9496 147.034 26.5752C146.549 27.1852 146.307 28.0846 146.307 29.2733C146.307 30.462 146.549 31.3692 147.034 31.9948C147.519 32.6048 148.191 32.9098 149.052 32.9098ZM163.831 35.3733C162.596 35.3733 161.516 35.1309 160.594 34.646C159.686 34.1611 158.983 33.4651 158.482 32.5579C157.982 31.6507 157.731 30.5559 157.731 29.2733C157.731 27.9907 157.982 26.8959 158.482 25.9887C158.983 25.0815 159.679 24.3855 160.57 23.9006C161.477 23.4158 162.51 23.1733 163.667 23.1733C164.856 23.1733 165.865 23.4158 166.694 23.9006C167.523 24.3699 168.156 25.019 168.594 25.8479C169.032 26.6613 169.251 27.5919 169.251 28.6398C169.251 28.9527 169.243 29.2498 169.227 29.5314C169.212 29.8129 169.188 30.0632 169.157 30.2822H159.796V28.0533H167.749L166.201 28.6164C166.201 27.631 165.974 26.8724 165.521 26.3406C165.083 25.8088 164.457 25.5429 163.644 25.5429C163.049 25.5429 162.533 25.6837 162.095 25.9652C161.673 26.2468 161.352 26.6691 161.133 27.2322C160.914 27.7796 160.805 28.4756 160.805 29.3202C160.805 30.1492 160.922 30.8374 161.157 31.3848C161.407 31.9166 161.751 32.3155 162.189 32.5814C162.643 32.8473 163.182 32.9802 163.808 32.9802C164.496 32.9802 165.051 32.8473 165.474 32.5814C165.896 32.3155 166.224 31.9479 166.459 31.4787L169.016 32.4641C168.766 33.0741 168.383 33.598 167.867 34.036C167.366 34.4739 166.764 34.8102 166.06 35.0448C165.372 35.2638 164.629 35.3733 163.831 35.3733ZM171.975 35.1387V23.4079H174.767L174.978 25.7072C175.291 24.8938 175.744 24.2682 176.339 23.8303C176.949 23.3923 177.707 23.1733 178.614 23.1733C178.88 23.1733 179.123 23.1968 179.342 23.2437C179.561 23.2906 179.741 23.3532 179.881 23.4314L179.506 26.1295C179.35 26.0669 179.154 26.02 178.919 25.9887C178.7 25.9574 178.411 25.9418 178.051 25.9418C177.582 25.9418 177.129 26.0591 176.691 26.2937C176.253 26.5127 175.893 26.8568 175.611 27.326C175.33 27.7796 175.189 28.3583 175.189 29.0622V35.1387H171.975Z" fill="#207DBB"/>
<defs>
<clipPath id="clip0_747_556">
<rect width="45.603" height="53.7767" fill="white" transform="translate(0.0625 0.25)"/>
</clipPath>
</defs>
</svg>
