<svg width="39" height="39" viewBox="0 0 39 39" fill="none" xmlns="http://www.w3.org/2000/svg">
<rect x="0.333374" width="38.6667" height="38.6667" rx="19.3333" fill="#207DBB"/>
<path d="M26.9625 15.4508C26.97 15.6209 26.97 15.7833 26.97 15.9534C26.9775 21.1116 23.1878 27.0663 16.2574 27.0663C14.2133 27.0663 12.2066 26.4553 10.4833 25.3108C10.7817 25.3495 11.0801 25.3649 11.3785 25.3649C13.0719 25.3649 14.7206 24.7772 16.0559 23.6868C14.4446 23.6559 13.0272 22.5655 12.5348 20.9724C13.1018 21.0884 13.6836 21.0652 14.2357 20.9028C12.4826 20.5471 11.2218 18.9463 11.2144 17.0825C11.2144 17.067 11.2144 17.0516 11.2144 17.0361C11.7366 17.3377 12.3259 17.5078 12.9227 17.5233C11.274 16.3788 10.7593 14.0974 11.7589 12.311C13.6762 14.7548 16.4961 16.2318 19.5249 16.3942C19.219 15.0409 19.6368 13.618 20.614 12.659C22.1284 11.182 24.5156 11.2593 25.948 12.8292C26.791 12.659 27.6041 12.3342 28.3427 11.878C28.0592 12.7828 27.4698 13.5484 26.6865 14.0356C27.4325 13.9428 28.1636 13.734 28.8499 13.4246C28.3427 14.2134 27.7011 14.894 26.9625 15.4508Z" fill="white"/>
</svg>
