<svg width="39" height="39" viewBox="0 0 39 39" fill="none" xmlns="http://www.w3.org/2000/svg">
<rect x="0.333252" width="38.6667" height="38.6667" rx="19.3333" fill="#207DBB"/>
<g clip-path="url(#clip0_747_592)">
<path d="M10 28.1937L11.3664 23.2317C10.5216 21.7753 10.0785 20.1259 10.0831 18.4397C10.0831 13.1561 14.404 8.86035 19.7082 8.86035C22.2841 8.86035 24.7031 9.85734 26.5173 11.6675C28.3362 13.4777 29.3379 15.8852 29.3333 18.4443C29.3333 23.7279 25.0124 28.0237 19.7036 28.0237H19.699C18.0879 28.0237 16.5045 27.6194 15.0965 26.8567L10 28.1937ZM15.3411 25.1246L15.632 25.2992C16.8599 26.0251 18.2679 26.4065 19.7036 26.4111H19.7082C24.1168 26.4111 27.7084 22.8412 27.7084 18.4489C27.7084 16.3217 26.8774 14.3231 25.3679 12.8162C23.8583 11.3092 21.8456 10.4822 19.7082 10.4822C15.2996 10.4776 11.7081 14.0475 11.7081 18.4397C11.7081 19.9421 12.1281 21.4077 12.9314 22.6758L13.1207 22.979L12.3128 25.9149L15.3411 25.1246Z" fill="white"/>
<path d="M10.3369 27.8579L11.6572 23.0659C10.8401 21.6646 10.4108 20.0703 10.4108 18.4439C10.4154 13.3441 14.584 9.19531 19.7081 9.19531C22.1963 9.19531 24.5276 10.1601 26.2818 11.906C28.036 13.6519 29.0009 15.9767 29.0009 18.4485C29.0009 23.5483 24.8277 27.6971 19.7081 27.6971H19.7035C18.1478 27.6971 16.6198 27.3065 15.2626 26.5714L10.3369 27.8579Z" fill="#207DBB"/>
<path d="M10 28.1937L11.3664 23.2317C10.5216 21.7753 10.0785 20.1259 10.0831 18.4397C10.0831 13.1561 14.404 8.86035 19.7082 8.86035C22.2841 8.86035 24.7031 9.85734 26.5173 11.6675C28.3362 13.4777 29.3379 15.8852 29.3333 18.4443C29.3333 23.7279 25.0124 28.0237 19.7036 28.0237H19.699C18.0879 28.0237 16.5045 27.6194 15.0965 26.8567L10 28.1937ZM15.3411 25.1246L15.632 25.2992C16.8599 26.0251 18.2679 26.4065 19.7036 26.4111H19.7082C24.1168 26.4111 27.7084 22.8412 27.7084 18.4489C27.7084 16.3217 26.8774 14.3231 25.3679 12.8162C23.8583 11.3092 21.8456 10.4822 19.7082 10.4822C15.2996 10.4776 11.7081 14.0475 11.7081 18.4397C11.7081 19.9421 12.1281 21.4077 12.9314 22.6758L13.1207 22.979L12.3128 25.9149L15.3411 25.1246Z" fill="white"/>
<path fill-rule="evenodd" clip-rule="evenodd" d="M17.3029 14.4337C17.1229 14.034 16.9336 14.0248 16.7628 14.0202C16.6243 14.0156 16.4628 14.0156 16.3012 14.0156C16.1396 14.0156 15.8811 14.0754 15.6595 14.3143C15.4379 14.5532 14.8193 15.1321 14.8193 16.3128C14.8193 17.489 15.6826 18.6284 15.8026 18.7892C15.9226 18.95 17.4691 21.4448 19.9112 22.405C21.9424 23.2045 22.3579 23.0437 22.7964 23.0023C23.235 22.961 24.2182 22.4234 24.4214 21.8629C24.6199 21.3024 24.6199 20.8246 24.5599 20.7235C24.4998 20.6224 24.3383 20.5627 24.0982 20.4432C23.8582 20.3238 22.6764 19.7449 22.4548 19.6622C22.2332 19.5841 22.0716 19.5427 21.9147 19.7816C21.7531 20.0205 21.2915 20.5581 21.153 20.7189C21.0145 20.8797 20.8714 20.8981 20.6313 20.7786C20.3913 20.6592 19.6157 20.4065 18.6971 19.5887C17.9815 18.9546 17.4968 18.169 17.3583 17.9301C17.2198 17.6912 17.3445 17.5625 17.4645 17.4431C17.5707 17.3374 17.7046 17.1628 17.8246 17.025C17.9446 16.8871 17.9862 16.7861 18.0646 16.6253C18.1431 16.4645 18.1062 16.3266 18.0462 16.2072C17.9862 16.0923 17.5153 14.9069 17.3029 14.4337Z" fill="white"/>
</g>
<defs>
<clipPath id="clip0_747_592">
<rect width="19.3333" height="19.3333" fill="white" transform="translate(10 8.86035)"/>
</clipPath>
</defs>
</svg>
