<svg width="22" height="21" viewBox="0 0 22 21" fill="none" xmlns="http://www.w3.org/2000/svg">
<path d="M6.21124 1.70453C6.60166 1.00177 7.3424 0.565918 8.14632 0.565918H11.7765C12.5804 0.565918 13.3212 1.00177 13.7116 1.70453L14.3812 2.90979H16.3419C17.996 2.90979 19.3369 4.25067 19.3369 5.90473V9.44326C18.2844 8.76945 17.0333 8.37881 15.6909 8.37881C15.0755 8.37881 14.4793 8.4609 13.9126 8.61472C13.3586 6.96386 11.7989 5.77452 9.96141 5.77452C7.66011 5.77452 5.79453 7.64009 5.79453 9.94139C5.79453 11.9178 7.17054 13.5728 9.01682 14.0007C8.95296 14.3743 8.91969 14.7582 8.91969 15.15C8.91969 16.0728 9.10431 16.9526 9.43864 17.7543H3.58088C1.92682 17.7543 0.585938 16.4134 0.585938 14.7593V5.90473C0.585938 4.25067 1.92682 2.90979 3.58088 2.90979H5.54165L6.21124 1.70453ZM9.96141 7.07666C8.37927 7.07666 7.09668 8.35925 7.09668 9.94139C7.09668 11.3173 8.06662 12.4666 9.36003 12.7429C9.96937 11.1412 11.1691 9.83051 12.6933 9.07676C12.3267 7.9172 11.2422 7.07666 9.96141 7.07666ZM15.6909 20.8794C18.8552 20.8794 21.4203 18.3143 21.4203 15.15C21.4203 11.9857 18.8552 9.42053 15.6909 9.42053C12.5266 9.42053 9.96141 11.9857 9.96141 15.15C9.96141 18.3143 12.5266 20.8794 15.6909 20.8794ZM15.6909 11.504C15.9785 11.504 16.2117 11.7372 16.2117 12.0248V14.6291H18.816C19.1037 14.6291 19.3369 14.8623 19.3369 15.15C19.3369 15.4377 19.1037 15.6708 18.816 15.6708H16.2117V18.2751C16.2117 18.5628 15.9785 18.796 15.6909 18.796C15.4032 18.796 15.17 18.5628 15.17 18.2751V15.6708H12.5657C12.278 15.6708 12.0448 15.4377 12.0448 15.15C12.0448 14.8623 12.278 14.6291 12.5657 14.6291H15.17V12.0248C15.17 11.7372 15.4032 11.504 15.6909 11.504Z" fill="#207DBB"/>
</svg>
