<svg width="18" height="18" viewBox="0 0 18 18" fill="none" xmlns="http://www.w3.org/2000/svg">
<path d="M12.75 7.5C13.9926 7.5 15 6.49264 15 5.25C15 4.00736 13.9926 3 12.75 3C11.5074 3 10.5 4.00736 10.5 5.25C10.5 6.49264 11.5074 7.5 12.75 7.5Z" stroke="#207DBB" stroke-width="1.5" stroke-linecap="round" stroke-linejoin="round"/>
<path d="M5.25 15C6.49264 15 7.5 13.9926 7.5 12.75C7.5 11.5074 6.49264 10.5 5.25 10.5C4.00736 10.5 3 11.5074 3 12.75C3 13.9926 4.00736 15 5.25 15Z" stroke="#207DBB" stroke-width="1.5" stroke-linecap="round" stroke-linejoin="round"/>
<path d="M10.5 10.5H15V14.25C15 14.4489 14.921 14.6397 14.7803 14.7803C14.6397 14.921 14.4489 15 14.25 15H11.25C11.0511 15 10.8603 14.921 10.7197 14.7803C10.579 14.6397 10.5 14.4489 10.5 14.25V10.5ZM3 3H7.5V6.75C7.5 6.94891 7.42098 7.13968 7.28033 7.28033C7.13968 7.42098 6.94891 7.5 6.75 7.5H3.75C3.55109 7.5 3.36032 7.42098 3.21967 7.28033C3.07902 7.13968 3 6.94891 3 6.75V3Z" stroke="#207DBB" stroke-width="1.5" stroke-linecap="round" stroke-linejoin="round"/>
</svg>
