<svg width="172" height="52" viewBox="0 0 172 52" fill="none" xmlns="http://www.w3.org/2000/svg">
<g clip-path="url(#clip0_700_1114)">
<path d="M20.8056 15.4233C24.885 15.4233 28.192 12.1163 28.192 8.03684C28.192 3.95742 24.885 0.650391 20.8056 0.650391C16.7262 0.650391 13.4191 3.95742 13.4191 8.03684C13.4191 12.1163 16.7262 15.4233 20.8056 15.4233Z" fill="#FBFF2B"/>
<path d="M42.213 7.68072L42.1883 7.60156C42.1883 7.60156 37.4388 15.0226 26.9157 18.8668C13.627 23.7548 0.650024 22.3299 0.650024 22.3299C16.071 27.9353 23.2546 40.1405 26.5397 51.5789C35.8804 43.7373 40.3231 34.7578 42.4257 27.6731C44.3556 21.1376 44.2815 14.1736 42.213 7.68072Z" fill="#FBFF2B"/>
</g>
<path d="M65.8917 30.0622C65.6104 31.0099 65.1662 31.802 64.5591 32.4387C63.952 33.0754 63.2339 33.5492 62.4047 33.8602C61.5755 34.1711 60.6649 34.3266 59.6729 34.3266C58.2218 34.3266 56.9632 34.0231 55.8971 33.416C54.8459 32.8089 54.0315 31.9427 53.454 30.8174C52.8914 29.6921 52.61 28.3447 52.61 26.7751C52.61 25.2056 52.8914 23.8582 53.454 22.7329C54.0315 21.6076 54.8459 20.7414 55.8971 20.1343C56.9632 19.5272 58.207 19.2237 59.6285 19.2237C60.6353 19.2237 61.5459 19.3643 62.3603 19.6457C63.1747 19.9122 63.8632 20.3268 64.4259 20.8894C65.0033 21.4521 65.4253 22.1628 65.6918 23.0216L62.9156 24.1988C62.6638 23.3103 62.2789 22.6811 61.7606 22.3109C61.2424 21.9259 60.5761 21.7334 59.7617 21.7334C58.9621 21.7334 58.2588 21.9259 57.6517 22.3109C57.0595 22.6959 56.6005 23.2659 56.2747 24.0211C55.949 24.7614 55.7861 25.6794 55.7861 26.7751C55.7861 27.856 55.9342 28.7741 56.2303 29.5292C56.5412 30.2843 56.9928 30.8544 57.5851 31.2394C58.1774 31.6244 58.9029 31.8168 59.7617 31.8168C60.5613 31.8168 61.2498 31.6021 61.8273 31.1727C62.4195 30.7434 62.8341 30.0919 63.071 29.2183L65.8917 30.0622ZM74.523 27.0194C74.523 26.3828 74.3379 25.8867 73.9677 25.5314C73.6124 25.176 73.1385 24.9983 72.5463 24.9983C71.9984 24.9983 71.5172 25.139 71.1026 25.4203C70.688 25.7016 70.3845 26.1681 70.192 26.8196L67.5934 26.02C67.8451 25.0427 68.393 24.258 69.237 23.6657C70.0958 23.0734 71.2433 22.7773 72.6795 22.7773C73.6568 22.7773 74.5082 22.9328 75.2337 23.2437C75.9592 23.5399 76.5219 23.9915 76.9217 24.5985C77.3363 25.2056 77.5436 25.9682 77.5436 26.8862V31.3949C77.5436 31.9575 77.8101 32.2388 78.3431 32.2388C78.5948 32.2388 78.8318 32.2018 79.0539 32.1278L78.8762 34.0157C78.4912 34.2081 78.01 34.3044 77.4325 34.3044C76.9143 34.3044 76.4479 34.2155 76.0333 34.0379C75.6187 33.8602 75.2929 33.5937 75.056 33.2383C74.8191 32.8681 74.7007 32.4091 74.7007 31.8613V31.7724L75.2337 31.6836C75.1449 32.2462 74.9006 32.7275 74.5008 33.1272C74.101 33.5122 73.6124 33.8084 73.0349 34.0157C72.4722 34.2229 71.8874 34.3266 71.2803 34.3266C70.5251 34.3266 69.8736 34.2155 69.3258 33.9934C68.7779 33.7565 68.356 33.416 68.0598 32.9718C67.7637 32.5276 67.6156 31.9797 67.6156 31.3282C67.6156 30.499 67.8821 29.8253 68.4152 29.3071C68.9482 28.7741 69.7108 28.4113 70.7028 28.2188L74.8783 27.3748L74.8561 29.2627L72.1909 29.7957C71.6875 29.8994 71.3025 30.04 71.036 30.2177C70.7843 30.3806 70.6584 30.6545 70.6584 31.0395C70.6584 31.4097 70.7917 31.691 71.0582 31.8835C71.3395 32.076 71.6727 32.1722 72.0576 32.1722C72.3686 32.1722 72.6721 32.1352 72.9683 32.0612C73.2644 31.9871 73.5309 31.8687 73.7678 31.7058C74.0047 31.5429 74.1898 31.3208 74.3231 31.0395C74.4563 30.7582 74.523 30.4176 74.523 30.0178V27.0194ZM80.9466 34.1045V22.9994H83.5896L83.7895 25.176C84.0856 24.406 84.515 23.8138 85.0777 23.3992C85.6551 22.9846 86.3733 22.7773 87.2321 22.7773C87.4838 22.7773 87.7133 22.7995 87.9206 22.8439C88.1279 22.8884 88.2981 22.9476 88.4314 23.0216L88.076 25.5758C87.928 25.5166 87.7429 25.4721 87.5208 25.4425C87.3135 25.4129 87.0396 25.3981 86.699 25.3981C86.2548 25.3981 85.8254 25.5092 85.4108 25.7313C84.9962 25.9386 84.6557 26.2643 84.3892 26.7085C84.1226 27.1379 83.9894 27.6858 83.9894 28.3521V34.1045H80.9466ZM95.2524 34.3266C94.0826 34.3266 93.061 34.0971 92.1874 33.6381C91.3286 33.1791 90.6623 32.5202 90.1884 31.6614C89.7146 30.8026 89.4777 29.7661 89.4777 28.5519C89.4777 27.3378 89.7146 26.3013 90.1884 25.4425C90.6623 24.5837 91.3212 23.9248 92.1651 23.4658C93.0239 23.0068 94.0012 22.7773 95.0969 22.7773C96.2222 22.7773 97.1772 23.0068 97.962 23.4658C98.7468 23.91 99.3464 24.5245 99.761 25.3093C100.176 26.0792 100.383 26.9602 100.383 27.9523C100.383 28.2484 100.376 28.5297 100.361 28.7963C100.346 29.0628 100.324 29.2997 100.294 29.507H91.4322V27.397H98.9615L97.4956 27.9301C97.4956 26.9972 97.2809 26.2791 96.8515 25.7757C96.4369 25.2722 95.8446 25.0205 95.0747 25.0205C94.512 25.0205 94.0234 25.1538 93.6088 25.4203C93.209 25.6868 92.9055 26.0866 92.6982 26.6197C92.4909 27.1379 92.3872 27.7968 92.3872 28.5964C92.3872 29.3811 92.4983 30.0326 92.7204 30.5509C92.9573 31.0543 93.2831 31.4319 93.6976 31.6836C94.127 31.9353 94.6379 32.0612 95.2301 32.0612C95.8816 32.0612 96.4073 31.9353 96.8071 31.6836C97.2069 31.4319 97.5178 31.0839 97.7399 30.6397L100.161 31.5725C99.9239 32.15 99.5611 32.646 99.0725 33.0606C98.5987 33.4752 98.0286 33.7935 97.3623 34.0157C96.7108 34.2229 96.0075 34.3266 95.2524 34.3266ZM114.158 21.9111H106.251V25.6424H112.492V28.1077H106.251V34.1045H103.186V19.4458H114.158V21.9111ZM118.007 21.4003C117.37 21.4003 116.896 21.267 116.585 21.0005C116.274 20.7192 116.119 20.312 116.119 19.7789C116.119 19.2311 116.274 18.8239 116.585 18.5574C116.896 18.276 117.37 18.1354 118.007 18.1354C118.643 18.1354 119.117 18.276 119.428 18.5574C119.739 18.8239 119.895 19.2311 119.895 19.7789C119.895 20.312 119.739 20.7192 119.428 21.0005C119.117 21.267 118.643 21.4003 118.007 21.4003ZM119.517 22.9994V34.1045H116.474V22.9994H119.517ZM122.742 34.1045V22.9994H125.474L125.652 26.3309L125.274 25.9756C125.452 25.25 125.733 24.6504 126.118 24.1765C126.503 23.7027 126.97 23.3548 127.518 23.1327C128.08 22.8958 128.695 22.7773 129.361 22.7773C130.131 22.7773 130.812 22.9254 131.404 23.2215C132.012 23.5176 132.485 23.9692 132.826 24.5763C133.181 25.1686 133.359 25.9163 133.359 26.8196V34.1045H130.316V27.6858C130.316 26.7381 130.131 26.0866 129.761 25.7313C129.391 25.3611 128.91 25.176 128.317 25.176C127.903 25.176 127.495 25.2796 127.096 25.4869C126.711 25.6794 126.392 25.9978 126.141 26.442C125.904 26.8862 125.785 27.4785 125.785 28.2188V34.1045H122.742ZM140.691 34.3266C139.773 34.3266 138.952 34.0971 138.226 33.6381C137.515 33.1791 136.953 32.5202 136.538 31.6614C136.138 30.8026 135.938 29.7735 135.938 28.5742C135.938 27.3452 136.153 26.3013 136.583 25.4425C137.012 24.5689 137.589 23.91 138.315 23.4658C139.055 23.0068 139.884 22.7773 140.802 22.7773C141.78 22.7773 142.587 23.0586 143.223 23.6213C143.86 24.1839 144.275 24.9095 144.467 25.7979L144.178 26.1532V18.1354H147.221V34.1045H144.489L144.289 30.7285L144.667 30.9062C144.563 31.6021 144.326 32.2092 143.956 32.7275C143.586 33.2309 143.12 33.6233 142.557 33.9046C141.994 34.1859 141.373 34.3266 140.691 34.3266ZM141.58 31.9945C142.113 31.9945 142.572 31.8613 142.957 31.5947C143.342 31.3134 143.638 30.9062 143.845 30.3732C144.067 29.8401 144.178 29.2034 144.178 28.4631C144.178 27.7524 144.075 27.1527 143.867 26.6641C143.66 26.1607 143.364 25.7757 142.979 25.5092C142.594 25.2426 142.142 25.1094 141.624 25.1094C140.795 25.1094 140.144 25.4055 139.67 25.9978C139.211 26.5752 138.981 27.4266 138.981 28.5519C138.981 29.6773 139.211 30.5361 139.67 31.1283C140.129 31.7058 140.765 31.9945 141.58 31.9945ZM155.571 34.3266C154.401 34.3266 153.38 34.0971 152.506 33.6381C151.647 33.1791 150.981 32.5202 150.507 31.6614C150.033 30.8026 149.797 29.7661 149.797 28.5519C149.797 27.3378 150.033 26.3013 150.507 25.4425C150.981 24.5837 151.64 23.9248 152.484 23.4658C153.343 23.0068 154.32 22.7773 155.416 22.7773C156.541 22.7773 157.496 23.0068 158.281 23.4658C159.066 23.91 159.665 24.5245 160.08 25.3093C160.494 26.0792 160.702 26.9602 160.702 27.9523C160.702 28.2484 160.694 28.5297 160.68 28.7963C160.665 29.0628 160.643 29.2997 160.613 29.507H151.751V27.397H159.28L157.814 27.9301C157.814 26.9972 157.6 26.2791 157.17 25.7757C156.756 25.2722 156.163 25.0205 155.394 25.0205C154.831 25.0205 154.342 25.1538 153.928 25.4203C153.528 25.6868 153.224 26.0866 153.017 26.6197C152.81 27.1379 152.706 27.7968 152.706 28.5964C152.706 29.3811 152.817 30.0326 153.039 30.5509C153.276 31.0543 153.602 31.4319 154.016 31.6836C154.446 31.9353 154.957 32.0612 155.549 32.0612C156.2 32.0612 156.726 31.9353 157.126 31.6836C157.526 31.4319 157.837 31.0839 158.059 30.6397L160.48 31.5725C160.243 32.15 159.88 32.646 159.391 33.0606C158.918 33.4752 158.347 33.7935 157.681 34.0157C157.03 34.2229 156.326 34.3266 155.571 34.3266ZM163.28 34.1045V22.9994H165.923L166.123 25.176C166.419 24.406 166.849 23.8138 167.411 23.3992C167.989 22.9846 168.707 22.7773 169.566 22.7773C169.818 22.7773 170.047 22.7995 170.254 22.8439C170.462 22.8884 170.632 22.9476 170.765 23.0216L170.41 25.5758C170.262 25.5166 170.077 25.4721 169.855 25.4425C169.647 25.4129 169.373 25.3981 169.033 25.3981C168.589 25.3981 168.159 25.5092 167.745 25.7313C167.33 25.9386 166.989 26.2643 166.723 26.7085C166.456 27.1379 166.323 27.6858 166.323 28.3521V34.1045H163.28Z" fill="#EDF9FC"/>
<defs>
<clipPath id="clip0_700_1114">
<rect width="43.1709" height="50.9086" fill="white" transform="translate(0.650085 0.650391)"/>
</clipPath>
</defs>
</svg>
