<svg width="72" height="72" viewBox="0 0 72 72" fill="none" xmlns="http://www.w3.org/2000/svg">
<path d="M36 6C32.8174 6 29.7652 7.26428 27.5147 9.51472C25.2643 11.7652 24 14.8174 24 18C24 21.1826 25.2643 24.2348 27.5147 26.4853C29.7652 28.7357 32.8174 30 36 30C39.1826 30 42.2348 28.7357 44.4853 26.4853C46.7357 24.2348 48 21.1826 48 18C48 14.8174 46.7357 11.7652 44.4853 9.51472C42.2348 7.26428 39.1826 6 36 6ZM51 36H21C18.6131 36 16.3239 36.9482 14.636 38.636C12.9482 40.3239 12 42.6131 12 45C12 51.696 14.754 57.06 19.272 60.69C23.718 64.26 29.682 66 36 66C42.318 66 48.282 64.26 52.728 60.69C57.24 57.06 60 51.696 60 45C60 42.6131 59.0518 40.3239 57.364 38.636C55.6761 36.9482 53.3869 36 51 36Z" fill="#93CEF5"/>
</svg>
