<svg width="1249" height="1490" viewBox="0 0 1249 1490" fill="none" xmlns="http://www.w3.org/2000/svg">
<path d="M1159.22 1339.16L1153.74 1348.5L1150.77 1346.76L1156.25 1337.42L1159.22 1339.16ZM1160.11 1344.22L1158.58 1346.81L1149.87 1341.7L1151.39 1339.1L1160.11 1344.22Z" fill="#93CEF5"/>
<path d="M1159.22 1339.16L1159.49 1339.32L1159.64 1339.05L1159.38 1338.9L1159.22 1339.16ZM1153.74 1348.5L1153.58 1348.77L1153.85 1348.92L1154 1348.66L1153.74 1348.5ZM1150.77 1346.76L1150.51 1346.61L1150.35 1346.87L1150.62 1347.03L1150.77 1346.76ZM1156.25 1337.42L1156.41 1337.16L1156.15 1337L1155.99 1337.27L1156.25 1337.42ZM1160.11 1344.22L1160.37 1344.37L1160.53 1344.11L1160.26 1343.95L1160.11 1344.22ZM1158.58 1346.81L1158.43 1347.07L1158.69 1347.23L1158.85 1346.97L1158.58 1346.81ZM1149.87 1341.7L1149.61 1341.54L1149.45 1341.81L1149.72 1341.96L1149.87 1341.7ZM1151.39 1339.1L1151.55 1338.84L1151.28 1338.68L1151.13 1338.95L1151.39 1339.1ZM1158.96 1339.01L1153.48 1348.35L1154 1348.66L1159.49 1339.32L1158.96 1339.01ZM1153.9 1348.24L1150.93 1346.5L1150.62 1347.03L1153.58 1348.77L1153.9 1348.24ZM1151.04 1346.92L1156.52 1337.58L1155.99 1337.27L1150.51 1346.61L1151.04 1346.92ZM1156.1 1337.69L1159.07 1339.43L1159.38 1338.9L1156.41 1337.16L1156.1 1337.69ZM1159.84 1344.06L1158.32 1346.65L1158.85 1346.97L1160.37 1344.37L1159.84 1344.06ZM1158.74 1346.54L1150.03 1341.43L1149.72 1341.96L1158.43 1347.07L1158.74 1346.54ZM1150.14 1341.85L1151.66 1339.26L1151.13 1338.95L1149.61 1341.54L1150.14 1341.85ZM1151.24 1339.37L1159.95 1344.48L1160.26 1343.95L1151.55 1338.84L1151.24 1339.37Z" fill="#FBFF2B"/>
<path d="M61.1907 40.122L61.8548 39.9058L61.6387 39.2418L60.9746 39.4579L61.1907 40.122ZM79.2796 95.7019L79.4958 96.366L80.1599 96.1499L79.9437 95.4858L79.2796 95.7019ZM61.6272 101.447L60.9631 101.663L61.1793 102.327L61.8433 102.111L61.6272 101.447ZM43.5383 45.8671L43.3222 45.203L42.6581 45.4191L42.8742 46.0832L43.5383 45.8671ZM84.771 54.6472L85.4351 54.431L85.2189 53.767L84.5548 53.9831L84.771 54.6472ZM89.7938 70.0804L90.01 70.7445L90.6741 70.5284L90.4579 69.8643L89.7938 70.0804ZM37.9461 86.9547L37.282 87.1708L37.4982 87.8349L38.1623 87.6188L37.9461 86.9547ZM32.9232 71.5214L32.7071 70.8573L32.043 71.0734L32.2592 71.7375L32.9232 71.5214ZM60.5267 40.3381L78.6156 95.9181L79.9437 95.4858L61.8548 39.9058L60.5267 40.3381ZM79.0635 95.0378L61.4111 100.783L61.8433 102.111L79.4958 96.366L79.0635 95.0378ZM62.2913 101.231L44.2024 45.651L42.8742 46.0832L60.9631 101.663L62.2913 101.231ZM43.7544 46.5312L61.4069 40.7861L60.9746 39.4579L43.3222 45.203L43.7544 46.5312ZM84.1069 54.8633L89.1297 70.2966L90.4579 69.8643L85.4351 54.431L84.1069 54.8633ZM89.5777 69.4164L37.73 86.2906L38.1623 87.6188L90.01 70.7445L89.5777 69.4164ZM38.6102 86.7385L33.5873 71.3053L32.2592 71.7375L37.282 87.1708L38.6102 86.7385ZM33.1394 72.1855L84.9871 55.3113L84.5548 53.9831L32.7071 70.8573L33.1394 72.1855Z" fill="#93CEF5"/>
<path d="M1196.21 42.2525L1196.9 42.0263L1196.68 41.3315L1195.98 41.5576L1196.21 42.2525ZM1215.14 100.407L1215.36 101.102L1216.06 100.876L1215.83 100.181L1215.14 100.407ZM1196.67 106.419L1195.97 106.645L1196.2 107.34L1196.89 107.114L1196.67 106.419ZM1177.74 48.2637L1177.51 47.5689L1176.82 47.795L1177.04 48.4899L1177.74 48.2637ZM1220.88 57.4506L1221.58 57.2245L1221.35 56.5296L1220.66 56.7557L1220.88 57.4506ZM1226.14 73.5989L1226.36 74.2937L1227.06 74.0676L1226.83 73.3727L1226.14 73.5989ZM1171.89 91.2549L1171.19 91.481L1171.42 92.1759L1172.11 91.9497L1171.89 91.2549ZM1166.63 75.1066L1166.41 74.4117L1165.71 74.6379L1165.94 75.3327L1166.63 75.1066ZM1195.51 42.4786L1214.44 100.634L1215.83 100.181L1196.9 42.0263L1195.51 42.4786ZM1214.91 99.7125L1196.44 105.724L1196.89 107.114L1215.36 101.102L1214.91 99.7125ZM1197.36 106.193L1178.43 48.0376L1177.04 48.4899L1195.97 106.645L1197.36 106.193ZM1177.97 48.9586L1196.44 42.9473L1195.98 41.5576L1177.51 47.5689L1177.97 48.9586ZM1220.19 57.6768L1225.44 73.825L1226.83 73.3727L1221.58 57.2245L1220.19 57.6768ZM1225.91 72.904L1171.66 90.56L1172.11 91.9497L1226.36 74.2937L1225.91 72.904ZM1172.58 91.0287L1167.33 74.8804L1165.94 75.3327L1171.19 91.481L1172.58 91.0287ZM1166.86 75.8015L1221.11 58.1455L1220.66 56.7557L1166.41 74.4117L1166.86 75.8015Z" fill="#EDF9FC"/>
<path d="M56.0344 295.484L73.7522 312.949L68.2052 318.576L50.4874 301.111L56.0344 295.484ZM67.7901 296.357L72.71 301.207L56.4178 317.735L51.4979 312.885L67.7901 296.357Z" fill="#EDF9FC"/>
<path d="M50.1907 873.238L50.8548 873.022L50.6387 872.358L49.9746 872.574L50.1907 873.238ZM68.2796 928.818L68.4958 929.482L69.1599 929.266L68.9437 928.602L68.2796 928.818ZM50.6272 934.563L49.9631 934.779L50.1793 935.443L50.8433 935.227L50.6272 934.563ZM32.5383 878.983L32.3222 878.319L31.6581 878.535L31.8742 879.199L32.5383 878.983ZM73.771 887.763L74.4351 887.547L74.2189 886.883L73.5548 887.099L73.771 887.763ZM78.7938 903.197L79.01 903.861L79.6741 903.645L79.4579 902.981L78.7938 903.197ZM26.9461 920.071L26.282 920.287L26.4982 920.951L27.1623 920.735L26.9461 920.071ZM21.9232 904.638L21.7071 903.974L21.043 904.19L21.2592 904.854L21.9232 904.638ZM49.5267 873.454L67.6156 929.034L68.9437 928.602L50.8548 873.022L49.5267 873.454ZM68.0635 928.154L50.4111 933.899L50.8433 935.227L68.4958 929.482L68.0635 928.154ZM51.2913 934.347L33.2024 878.767L31.8742 879.199L49.9631 934.779L51.2913 934.347ZM32.7544 879.647L50.4069 873.902L49.9746 872.574L32.3222 878.319L32.7544 879.647ZM73.1069 887.98L78.1297 903.413L79.4579 902.981L74.4351 887.547L73.1069 887.98ZM78.5777 902.533L26.73 919.407L27.1623 920.735L79.01 903.861L78.5777 902.533ZM27.6102 919.855L22.5873 904.421L21.2592 904.854L26.282 920.287L27.6102 919.855ZM22.1394 905.302L73.9871 888.427L73.5548 887.099L21.7071 903.974L22.1394 905.302Z" fill="#93CEF5"/>
<path d="M1149.21 897.491L1149.9 897.265L1149.68 896.57L1148.98 896.796L1149.21 897.491ZM1168.14 955.646L1168.36 956.341L1169.06 956.115L1168.83 955.42L1168.14 955.646ZM1149.67 961.657L1148.97 961.884L1149.2 962.578L1149.89 962.352L1149.67 961.657ZM1130.74 903.503L1130.51 902.808L1129.82 903.034L1130.04 903.729L1130.74 903.503ZM1173.88 912.689L1174.58 912.463L1174.35 911.768L1173.66 911.995L1173.88 912.689ZM1179.14 928.838L1179.36 929.533L1180.06 929.306L1179.83 928.612L1179.14 928.838ZM1124.89 946.494L1124.19 946.72L1124.42 947.415L1125.11 947.189L1124.89 946.494ZM1119.63 930.345L1119.41 929.651L1118.71 929.877L1118.94 930.572L1119.63 930.345ZM1148.51 897.717L1167.44 955.872L1168.83 955.42L1149.9 897.265L1148.51 897.717ZM1167.91 954.951L1149.44 960.963L1149.89 962.352L1168.36 956.341L1167.91 954.951ZM1150.36 961.431L1131.43 903.276L1130.04 903.729L1148.97 961.884L1150.36 961.431ZM1130.97 904.197L1149.44 898.186L1148.98 896.796L1130.51 902.808L1130.97 904.197ZM1173.19 912.916L1178.44 929.064L1179.83 928.612L1174.58 912.463L1173.19 912.916ZM1178.91 928.143L1124.66 945.799L1125.11 947.189L1179.36 929.533L1178.91 928.143ZM1125.58 946.268L1120.33 930.119L1118.94 930.572L1124.19 946.72L1125.58 946.268ZM1119.86 931.04L1174.11 913.384L1173.66 911.995L1119.41 929.651L1119.86 931.04Z" fill="#FBFF2B"/>
<path d="M49.0344 1449.42L66.7522 1466.89L61.2052 1472.52L43.4874 1455.05L49.0344 1449.42ZM60.7901 1450.3L65.71 1455.15L49.4178 1471.68L44.4979 1466.83L60.7901 1450.3Z" fill="#FBFF2B"/>
</svg>
