<svg width="18" height="18" viewBox="0 0 18 18" fill="none" xmlns="http://www.w3.org/2000/svg">
<path fill-rule="evenodd" clip-rule="evenodd" d="M6.875 2.62581C5.74783 2.62581 4.66683 3.07358 3.8698 3.87061C3.07277 4.66764 2.625 5.74864 2.625 6.87581C2.625 8.00299 3.07277 9.08399 3.8698 9.88102C4.66683 10.678 5.74783 11.1258 6.875 11.1258C8.00217 11.1258 9.08317 10.678 9.8802 9.88102C10.6772 9.08399 11.125 8.00299 11.125 6.87581C11.125 5.74864 10.6772 4.66764 9.8802 3.87061C9.08317 3.07358 8.00217 2.62581 6.875 2.62581ZM0.5 6.87581C0.499872 5.8725 0.736558 4.88332 1.19081 3.98873C1.64506 3.09413 2.30404 2.31939 3.11417 1.7275C3.9243 1.13561 4.86269 0.74329 5.85303 0.582449C6.84337 0.421609 7.85769 0.496789 8.81349 0.801874C9.7693 1.10696 10.6396 1.63333 11.3536 2.33819C12.0676 3.04305 12.6052 3.90648 12.9226 4.85827C13.24 5.81005 13.3283 6.82332 13.1802 7.81565C13.0322 8.80798 12.652 9.75136 12.0706 10.5691L17.1887 15.6871C17.3822 15.8875 17.4893 16.1559 17.4869 16.4345C17.4845 16.7131 17.3727 16.9796 17.1757 17.1766C16.9787 17.3736 16.7123 17.4853 16.4337 17.4877C16.1551 17.4901 15.8867 17.383 15.6863 17.1895L10.5693 12.0725C9.61557 12.7507 8.49356 13.1532 7.32622 13.2361C6.15888 13.3189 4.99126 13.0788 3.95132 12.5421C2.91137 12.0054 2.03923 11.1928 1.43046 10.1933C0.821683 9.19385 0.499773 8.04609 0.5 6.87581Z" fill="#005792"/>
</svg>
