<svg width="104" height="104" viewBox="0 0 104 104" fill="none" xmlns="http://www.w3.org/2000/svg">
<circle cx="52.0801" cy="51.9998" r="51.4866" fill="white" fill-opacity="0.2"/>
<g clip-path="url(#clip0_390_1468)">
<path d="M41.0775 35.3378C42.4961 35.0504 43.961 35.0847 45.3645 35.4383C46.768 35.7919 48.0743 36.4557 49.1874 37.3809L49.259 37.4338L49.3213 37.4961C50.8629 39.0564 51.5668 39.3647 51.9467 39.3803C52.2582 39.3928 52.8343 39.2152 54.1984 37.8542L54.242 37.8075L54.2918 37.7639C55.7245 36.5524 57.7363 35.4188 60.2496 35.2849C62.7879 35.1541 65.6095 36.0541 68.618 38.4927C71.7791 41.0558 72.7227 44.0301 72.5888 46.7302C72.4642 49.3245 71.3524 51.5357 70.6797 52.741L70.6766 52.7472C70.2553 53.4951 69.8223 54.2364 69.3779 54.9709C69.0353 55.5626 68.7924 56.0079 68.5993 56.4751C68.2256 57.3845 67.9702 58.5119 67.7491 61.0345C67.2819 66.3601 65.5067 70.4431 62.411 72.4207C61.5608 72.9626 60.5798 73.2647 59.5614 73.0436C58.5492 72.8287 57.8142 72.1684 57.3003 71.4241C56.3193 70.0071 55.8241 67.8208 55.6373 65.4445C55.4192 63.0527 55.1826 60.4677 54.379 58.6489C53.9929 57.7707 53.5413 57.2381 53.0554 56.9609C52.607 56.7056 51.9187 56.5498 50.7633 56.8457C50.374 56.9672 49.3618 57.506 48.6579 60.9411V60.9505C48.3932 62.2024 48.2655 63.5354 48.1534 64.8808L48.1191 65.3199C48.0257 66.4847 47.9261 67.6837 47.733 68.7146C47.5243 69.8295 47.1443 71.1189 46.21 71.994C45.1418 72.9937 43.731 73.1245 42.2579 72.7321L42.1925 72.7135L42.1271 72.6917C39.5858 71.7667 38.0441 69.4807 37.1472 67.282C36.3313 65.2251 35.8914 63.0383 35.8485 60.8259V60.6764C35.8485 58.8389 35.8485 57.6118 35.4032 56.391C35.0139 55.3228 34.2384 54.2203 32.8494 52.3361L32.8307 52.3143C31.5164 50.4581 31.2797 48.032 31.3451 46.3658C31.4884 42.9743 33.1515 40.6541 34.7834 38.8664L34.7896 38.8571C36.4715 37.0624 38.6682 35.8329 41.0775 35.3378ZM60.0129 41.8718C59.6 41.8718 59.2039 42.0359 58.9118 42.3279C58.6198 42.6199 58.4558 43.016 58.4558 43.429C58.4558 43.842 58.6198 44.2381 58.9118 44.5301C59.2039 44.8221 59.6 44.9862 60.0129 44.9862C60.7666 44.9862 61.3895 45.2104 61.8411 45.609C62.2833 46.0046 62.6975 46.6897 62.8159 47.8763C62.8363 48.0798 62.8967 48.2772 62.9934 48.4574C63.0902 48.6375 63.2215 48.7969 63.3798 48.9263C63.5381 49.0557 63.7204 49.1527 63.9162 49.2116C64.112 49.2706 64.3175 49.2904 64.521 49.27C64.7245 49.2495 64.9219 49.1892 65.1021 49.0925C65.2822 48.9957 65.4416 48.8644 65.571 48.7061C65.7004 48.5477 65.7974 48.3655 65.8563 48.1697C65.9153 47.9738 65.9351 47.7683 65.9147 47.5649C65.7341 45.7492 65.0364 44.2885 63.9121 43.2857C62.8315 42.3493 61.4426 41.8457 60.0129 41.8718Z" fill="white"/>
</g>
<defs>
<clipPath id="clip0_390_1468">
<rect width="49.8258" height="46.1211" fill="white" transform="translate(27.1672 28.7476)"/>
</clipPath>
</defs>
</svg>
