<svg width="92" height="93" viewBox="0 0 92 93" fill="none" xmlns="http://www.w3.org/2000/svg">
<circle cx="46.11" cy="46.4017" r="45.8207" fill="white" fill-opacity="0.2"/>
<g clip-path="url(#clip0_671_360)">
<path d="M55.5725 34.9639C52.3289 34.9666 49.2087 36.2073 46.8488 38.4326C44.489 40.6579 43.0675 43.7 42.8745 46.9378H68.2704C68.0801 43.699 66.6594 40.6554 64.299 38.4296C61.9385 36.2037 58.8168 34.964 55.5725 34.9639Z" fill="white"/>
<path d="M42.8633 48.3633C43.0006 51.6419 44.3996 54.7406 46.768 57.0119C49.1364 59.2832 52.2909 60.5513 55.5724 60.5513C58.8538 60.5513 62.0084 59.2832 64.3768 57.0119C66.7452 54.7406 68.1442 51.6419 68.2815 48.3633H42.8633Z" fill="white"/>
<path d="M32.1144 25.708C29.9498 25.7139 27.8754 26.5756 26.3437 28.1052C24.8121 29.6347 23.9475 31.708 23.9387 33.8726V58.589C24.0168 60.7037 24.9118 62.7057 26.4354 64.1741C27.9591 65.6425 29.9928 66.463 32.1088 66.463C34.2249 66.463 36.2586 65.6425 37.7823 64.1741C39.3059 62.7057 40.2009 60.7037 40.279 58.589V33.8726C40.2702 31.7099 39.4072 29.6383 37.8779 28.1091C36.3487 26.5798 34.2771 25.7168 32.1144 25.708ZM38.5302 46.6708H25.6875V34.151C25.7565 32.4943 26.4632 30.9283 27.6599 29.7804C28.8566 28.6325 30.4506 27.9916 32.1088 27.9916C33.7671 27.9916 35.3611 28.6325 36.5578 29.7804C37.7545 30.9283 38.4612 32.4943 38.5302 34.151V46.6708Z" fill="white"/>
</g>
<defs>
<clipPath id="clip0_671_360">
<rect width="44.3426" height="41.0456" fill="white" transform="translate(23.9387 25.708)"/>
</clipPath>
</defs>
</svg>
