<svg width="104" height="104" viewBox="0 0 104 104" fill="none" xmlns="http://www.w3.org/2000/svg">
<circle cx="52.0267" cy="51.9998" r="51.4866" fill="white" fill-opacity="0.2"/>
<g clip-path="url(#clip0_383_1452)">
<path d="M76.4653 32.8365C76.4653 32.8365 74.6915 34.5474 69.2317 34.5474C67.8264 34.5387 66.4231 34.442 65.0299 34.258C55.8338 33.0755 51.9214 28.9995 51.9214 28.9995C51.9214 28.9995 47.9964 33.0755 38.8129 34.258C37.4197 34.4416 36.0163 34.5382 34.6111 34.5474C29.1387 34.5474 27.3649 32.8365 27.3649 32.8365C27.3649 32.8365 22.0561 64.2868 51.9214 81.66C81.7238 64.3497 76.4653 32.8365 76.4653 32.8365ZM51.9214 78.3263C46.7792 75.279 42.3026 71.2283 38.7582 66.4152C35.2138 61.6022 32.674 56.1252 31.2899 50.3103C30.2268 45.9398 29.7571 41.446 29.8935 36.9502C31.4446 37.2755 33.0264 37.4316 34.6111 37.4156C36.1383 37.4047 37.6634 37.2997 39.1777 37.1011C43.7138 36.6182 48.0761 35.0895 51.9214 32.6352C55.7641 35.0833 60.1217 36.6076 64.6525 37.0886C66.1711 37.2867 67.7003 37.3917 69.2317 37.4031C70.8123 37.4191 72.3899 37.263 73.9367 36.9376C74.1757 45.1902 72.5403 65.5071 51.9214 78.3263Z" fill="white"/>
<path d="M55.3683 43.731H48.5624V50.5746H41.7188V57.393H48.5624V64.2366H55.3683V57.393H62.2245V50.5746H55.3683V43.731Z" fill="white"/>
</g>
<defs>
<clipPath id="clip0_383_1452">
<rect width="49.83" height="52.6605" fill="white" transform="translate(27 28.9995)"/>
</clipPath>
</defs>
</svg>
