<svg width="121" height="21" viewBox="0 0 121 21" fill="none" xmlns="http://www.w3.org/2000/svg">
<path d="M10.3611 1.94985C10.5108 1.4892 11.1625 1.4892 11.3122 1.94985L12.9696 7.05067C13.0365 7.25668 13.2285 7.39616 13.4451 7.39616H18.8084C19.2928 7.39616 19.4941 8.01597 19.1023 8.30067L14.7633 11.4531C14.588 11.5805 14.5147 11.8061 14.5816 12.0122L16.239 17.113C16.3887 17.5736 15.8614 17.9567 15.4696 17.672L11.1306 14.5195C10.9553 14.3922 10.718 14.3922 10.5428 14.5195L6.20377 17.672C5.81191 17.9567 5.28467 17.5736 5.43435 17.113L7.0917 12.0122C7.15864 11.8061 7.08531 11.5805 6.91006 11.4531L2.57105 8.30067C2.1792 8.01597 2.38059 7.39616 2.86495 7.39616H8.22826C8.44487 7.39616 8.63685 7.25668 8.70379 7.05067L10.3611 1.94985Z" fill="#FDD836"/>
<path d="M35.3611 1.94985C35.5108 1.4892 36.1625 1.4892 36.3122 1.94985L37.9696 7.05067C38.0365 7.25668 38.2285 7.39616 38.4451 7.39616H43.8084C44.2928 7.39616 44.4941 8.01597 44.1023 8.30067L39.7633 11.4531C39.588 11.5805 39.5147 11.8061 39.5816 12.0122L41.239 17.113C41.3887 17.5736 40.8614 17.9567 40.4696 17.672L36.1306 14.5195C35.9553 14.3922 35.718 14.3922 35.5428 14.5195L31.2038 17.672C30.8119 17.9567 30.2847 17.5736 30.4343 17.113L32.0917 12.0122C32.1586 11.8061 32.0853 11.5805 31.9101 11.4531L27.5711 8.30067C27.1792 8.01597 27.3806 7.39616 27.8649 7.39616H33.2283C33.4449 7.39616 33.6368 7.25668 33.7038 7.05067L35.3611 1.94985Z" fill="#FDD836"/>
<path d="M60.3611 1.94985C60.5108 1.4892 61.1625 1.4892 61.3122 1.94985L62.9696 7.05067C63.0365 7.25668 63.2285 7.39616 63.4451 7.39616H68.8084C69.2928 7.39616 69.4941 8.01597 69.1023 8.30067L64.7633 11.4531C64.588 11.5805 64.5147 11.8061 64.5816 12.0122L66.239 17.113C66.3887 17.5736 65.8614 17.9567 65.4696 17.672L61.1306 14.5195C60.9553 14.3922 60.718 14.3922 60.5428 14.5195L56.2038 17.672C55.8119 17.9567 55.2847 17.5736 55.4343 17.113L57.0917 12.0122C57.1586 11.8061 57.0853 11.5805 56.9101 11.4531L52.5711 8.30067C52.1792 8.01597 52.3806 7.39616 52.8649 7.39616H58.2283C58.4449 7.39616 58.6368 7.25668 58.7038 7.05067L60.3611 1.94985Z" fill="#FDD836"/>
<path d="M85.3611 1.94985C85.5108 1.4892 86.1625 1.4892 86.3122 1.94985L87.9696 7.05067C88.0365 7.25668 88.2285 7.39616 88.4451 7.39616H93.8084C94.2928 7.39616 94.4941 8.01597 94.1023 8.30067L89.7633 11.4531C89.588 11.5805 89.5147 11.8061 89.5816 12.0122L91.239 17.113C91.3887 17.5736 90.8614 17.9567 90.4696 17.672L86.1306 14.5195C85.9553 14.3922 85.718 14.3922 85.5428 14.5195L81.2038 17.672C80.8119 17.9567 80.2847 17.5736 80.4343 17.113L82.0917 12.0122C82.1586 11.8061 82.0853 11.5805 81.9101 11.4531L77.5711 8.30067C77.1792 8.01597 77.3806 7.39616 77.8649 7.39616H83.2283C83.4449 7.39616 83.6368 7.25668 83.7038 7.05067L85.3611 1.94985Z" fill="#FDD836"/>
<path d="M110.361 1.94985C110.511 1.4892 111.163 1.4892 111.312 1.94985L112.97 7.05067C113.036 7.25668 113.228 7.39616 113.445 7.39616H118.808C119.293 7.39616 119.494 8.01597 119.102 8.30067L114.763 11.4531C114.588 11.5805 114.515 11.8061 114.582 12.0122L116.239 17.113C116.389 17.5736 115.861 17.9567 115.47 17.672L111.131 14.5195C110.955 14.3922 110.718 14.3922 110.543 14.5195L106.204 17.672C105.812 17.9567 105.285 17.5736 105.434 17.113L107.092 12.0122C107.159 11.8061 107.085 11.5805 106.91 11.4531L102.571 8.30067C102.179 8.01597 102.381 7.39616 102.865 7.39616H108.228C108.445 7.39616 108.637 7.25668 108.704 7.05067L110.361 1.94985Z" fill="#D8D8D8"/>
</svg>
