<svg width="1192" height="603" viewBox="0 0 1192 603" fill="none" xmlns="http://www.w3.org/2000/svg">
<path d="M121.566 42.4969L122.272 42.2672L122.042 41.5614L121.336 41.7911L121.566 42.4969ZM140.79 101.564L141.02 102.27L141.725 102.04L141.496 101.335L140.79 101.564ZM122.03 107.67L121.324 107.9L121.554 108.605L122.26 108.376L122.03 107.67ZM102.806 48.6025L102.576 47.8967L101.87 48.1264L102.1 48.8322L102.806 48.6025ZM146.626 57.9335L147.332 57.7038L147.102 56.9981L146.396 57.2278L146.626 57.9335ZM151.964 74.3352L152.194 75.041L152.899 74.8113L152.67 74.1055L151.964 74.3352ZM96.8628 92.2683L96.157 92.498L96.3867 93.2037L97.0925 92.974L96.8628 92.2683ZM91.5247 75.8666L91.295 75.1608L90.5893 75.3905L90.819 76.0963L91.5247 75.8666ZM120.86 42.7266L140.084 101.794L141.496 101.335L122.272 42.2672L120.86 42.7266ZM140.56 100.859L121.8 106.964L122.26 108.376L141.02 102.27L140.56 100.859ZM122.736 107.44L103.512 48.3728L102.1 48.8322L121.324 107.9L122.736 107.44ZM103.036 49.3083L121.796 43.2026L121.336 41.7911L102.576 47.8967L103.036 49.3083ZM145.92 58.1632L151.258 74.5649L152.67 74.1055L147.332 57.7038L145.92 58.1632ZM151.734 73.6295L96.6331 91.5625L97.0925 92.974L152.194 75.041L151.734 73.6295ZM97.5686 92.0386L92.2305 75.6369L90.819 76.0963L96.157 92.498L97.5686 92.0386ZM91.7544 76.5723L146.856 58.6393L146.396 57.2278L91.295 75.1608L91.7544 76.5723Z" fill="#93CEF5"/>
<path d="M1102.11 32.1583L1120.94 50.7192L1115.05 56.6995L1096.22 38.1386L1102.11 32.1583ZM1114.61 33.0864L1119.83 38.2404L1102.52 55.8056L1097.29 50.6516L1114.61 33.0864Z" fill="#207DBB"/>
<path d="M23.0344 563.241L40.7522 580.706L35.2052 586.333L17.4874 568.868L23.0344 563.241ZM34.7901 564.114L39.71 568.964L23.4178 585.492L18.4979 580.643L34.7901 564.114Z" fill="#207DBB"/>
<path d="M1136 225.564L1136.73 225.324L1136.49 224.585L1135.76 224.826L1136 225.564ZM1156.11 287.368L1156.35 288.107L1157.09 287.866L1156.85 287.128L1156.11 287.368ZM1136.48 293.757L1135.74 293.997L1135.98 294.735L1136.72 294.495L1136.48 293.757ZM1116.37 231.953L1116.13 231.214L1115.39 231.454L1115.63 232.193L1116.37 231.953ZM1162.22 241.716L1162.96 241.476L1162.72 240.737L1161.98 240.977L1162.22 241.716ZM1167.8 258.877L1168.04 259.616L1168.78 259.376L1168.54 258.637L1167.8 258.877ZM1110.15 277.641L1109.41 277.882L1109.65 278.62L1110.39 278.38L1110.15 277.641ZM1104.56 260.48L1104.32 259.741L1103.58 259.982L1103.82 260.72L1104.56 260.48ZM1135.26 225.804L1155.37 287.609L1156.85 287.128L1136.73 225.324L1135.26 225.804ZM1155.87 286.63L1136.24 293.018L1136.72 294.495L1156.35 288.107L1155.87 286.63ZM1137.22 293.516L1117.11 231.712L1115.63 232.193L1135.74 293.997L1137.22 293.516ZM1116.61 232.691L1136.24 226.303L1135.76 224.826L1116.13 231.214L1116.61 232.691ZM1161.48 241.956L1167.06 259.118L1168.54 258.637L1162.96 241.476L1161.48 241.956ZM1167.56 258.139L1109.91 276.903L1110.39 278.38L1168.04 259.616L1167.56 258.139ZM1110.89 277.401L1105.3 260.239L1103.82 260.72L1109.41 277.882L1110.89 277.401ZM1104.8 261.218L1162.46 242.454L1161.98 240.977L1104.32 259.741L1104.8 261.218Z" fill="#207DBB"/>
</svg>
