<svg width="40" height="40" viewBox="0 0 40 40" fill="none" xmlns="http://www.w3.org/2000/svg">
<rect width="40" height="40" rx="20" fill="#FBFF2B"/>
<path d="M17.75 21C17.75 20.4033 17.9871 19.831 18.409 19.409C18.831 18.9871 19.4033 18.75 20 18.75C20.5967 18.75 21.169 18.9871 21.591 19.409C22.0129 19.831 22.25 20.4033 22.25 21C22.25 21.5967 22.0129 22.169 21.591 22.591C21.169 23.0129 20.5967 23.25 20 23.25C19.4033 23.25 18.831 23.0129 18.409 22.591C17.9871 22.169 17.75 21.5967 17.75 21Z" fill="#207DBB"/>
<path fill-rule="evenodd" clip-rule="evenodd" d="M15.474 15.642C15.474 15.2294 15.5553 14.8208 15.7132 14.4396C15.8711 14.0584 16.1025 13.712 16.3943 13.4203C16.9835 12.831 17.7827 12.5 18.616 12.5H21.384C22.2173 12.5 23.0165 12.831 23.6057 13.4203C24.195 14.0095 24.526 14.8087 24.526 15.642C24.5262 15.6491 24.5289 15.656 24.5337 15.6613C24.5384 15.6666 24.5449 15.6701 24.552 15.671L26.782 15.851C27.781 15.933 28.602 16.671 28.789 17.656C29.2644 20.1685 29.2996 22.7445 28.893 25.269L28.796 25.873C28.707 26.4264 28.435 26.9339 28.0235 27.3145C27.6119 27.695 27.0847 27.9265 26.526 27.972L24.583 28.129C21.5327 28.3768 18.4673 28.3768 15.417 28.129L13.474 27.972C12.9152 27.9265 12.3878 27.6948 11.9763 27.3141C11.5647 26.9334 11.2928 26.4256 11.204 25.872L11.107 25.269C10.7 22.744 10.736 20.169 11.211 17.656C11.3018 17.177 11.5474 16.7411 11.91 16.4152C12.2725 16.0893 12.7321 15.8914 13.218 15.852L15.448 15.671C15.4553 15.6705 15.462 15.6672 15.4669 15.6618C15.4717 15.6563 15.4743 15.6493 15.474 15.642ZM20 17.25C19.0054 17.25 18.0516 17.6451 17.3484 18.3483C16.6451 19.0516 16.25 20.0054 16.25 21C16.25 21.9946 16.6451 22.9484 17.3484 23.6517C18.0516 24.3549 19.0054 24.75 20 24.75C20.9946 24.75 21.9484 24.3549 22.6517 23.6517C23.3549 22.9484 23.75 21.9946 23.75 21C23.75 20.0054 23.3549 19.0516 22.6517 18.3483C21.9484 17.6451 20.9946 17.25 20 17.25Z" fill="#207DBB"/>
</svg>
