<svg width="20" height="19" viewBox="0 0 20 19" fill="none" xmlns="http://www.w3.org/2000/svg">
<g clip-path="url(#clip0_747_807)">
<path d="M9.96326 8.72402C10.1688 8.72402 10.3659 8.80567 10.5113 8.95102C10.6566 9.09636 10.7383 9.29348 10.7383 9.49902V14.6016L11.7403 13.6003C11.8859 13.455 12.0832 13.3734 12.2888 13.3736C12.4945 13.3737 12.6916 13.4556 12.837 13.6011C12.9823 13.7466 13.0638 13.9439 13.0637 14.1496C13.0636 14.3552 12.9817 14.5524 12.8362 14.6977L10.6476 16.8824C10.4515 17.0777 10.2601 17.249 9.96326 17.249C9.70286 17.249 9.52461 17.118 9.35256 16.9545L7.09034 14.6977C6.94482 14.5524 6.86298 14.3552 6.86283 14.1496C6.86269 13.9439 6.94425 13.7466 7.08956 13.6011C7.23488 13.4556 7.43206 13.3737 7.63772 13.3736C7.84337 13.3734 8.04067 13.455 8.18619 13.6003L9.18826 14.6016V9.49902C9.18826 9.29348 9.26992 9.09636 9.41526 8.95102C9.5606 8.80567 9.75772 8.72402 9.96326 8.72402ZM9.57576 1.74902C11.7334 1.74902 13.5748 3.10527 14.2924 5.01332C15.2484 5.27618 16.0955 5.83761 16.71 6.61571C17.3245 7.39381 17.6744 8.3479 17.7086 9.33882C17.7428 10.3297 17.4595 11.3057 16.9 12.1243C16.3405 12.9429 15.5342 13.5613 14.5985 13.8894C14.5407 13.3661 14.3061 12.8781 13.9336 12.506C13.5375 12.1081 13.0104 11.8677 12.4502 11.8294L12.2883 11.824V9.49902C12.2888 8.89382 12.0534 8.31224 11.632 7.87787C11.2106 7.44349 10.6364 7.19054 10.0315 7.17278C9.42655 7.15502 8.83853 7.37385 8.39236 7.78276C7.9462 8.19166 7.67706 8.75843 7.64214 9.36262L7.63826 9.49902V11.824C7.33259 11.8236 7.02984 11.8836 6.74746 12.0006C6.46508 12.1177 6.20865 12.2894 5.99294 12.506C5.57603 12.9226 5.33354 13.4824 5.31481 14.0715C4.50798 13.9067 3.77462 13.4891 3.22101 12.8795C2.66741 12.2698 2.32234 11.4997 2.23582 10.6808C2.14929 9.86181 2.32581 9.03658 2.73979 8.3247C3.15377 7.61281 3.7837 7.05126 4.53826 6.72142C4.55539 5.39671 5.09367 4.13206 6.03653 3.20138C6.9794 2.2707 8.25094 1.74891 9.57576 1.74902Z" fill="#FBFF2B"/>
</g>
<defs>
<clipPath id="clip0_747_807">
<rect width="18.6" height="18.6" fill="white" transform="translate(0.663086 0.200195)"/>
</clipPath>
</defs>
</svg>
