<svg width="19" height="19" viewBox="0 0 19 19" fill="none" xmlns="http://www.w3.org/2000/svg">
<path d="M11.7325 2.58341C11.8303 2.5356 11.9396 2.51625 12.048 2.52755C12.1563 2.53886 12.2592 2.58037 12.3451 2.64735L17.5764 6.7161C17.6438 6.76848 17.6989 6.83507 17.7377 6.91115C17.7764 6.98722 17.798 7.07091 17.8008 7.15626C17.8035 7.2416 17.7875 7.32651 17.7537 7.40494C17.72 7.48338 17.6693 7.55341 17.6054 7.61006L12.3742 12.2601C12.2904 12.3345 12.1869 12.3831 12.0762 12.4C11.9654 12.4169 11.8521 12.4015 11.7499 12.3556C11.6477 12.3097 11.561 12.2352 11.5001 12.1411C11.4393 12.047 11.407 11.9373 11.407 11.8253V9.56538C11.1326 9.61188 10.7746 9.69326 10.3561 9.83276C9.34122 10.1722 7.96831 10.8546 6.58726 12.2368C6.50276 12.3216 6.39412 12.3783 6.2762 12.399C6.15828 12.4198 6.03683 12.4036 5.92845 12.3527C5.82007 12.3019 5.73005 12.2187 5.67069 12.1148C5.61133 12.0108 5.58552 11.891 5.59681 11.7718C5.76304 9.94552 6.29547 8.6133 7.01971 7.65307C7.64132 6.82428 8.48606 6.18961 9.45514 5.8233C10.0802 5.5864 10.7392 5.45138 11.407 5.4234V3.10653C11.4068 2.9976 11.4372 2.89079 11.4947 2.7983C11.5523 2.7058 11.6347 2.63134 11.7325 2.58341ZM2.68823 6.59403C2.68823 5.82325 2.99443 5.08403 3.53945 4.53901C4.08448 3.99398 4.8237 3.68778 5.59448 3.68778H7.91948C8.07364 3.68778 8.22148 3.74902 8.33049 3.85803C8.43949 3.96703 8.50073 4.11488 8.50073 4.26903C8.50073 4.42319 8.43949 4.57103 8.33049 4.68004C8.22148 4.78905 8.07364 4.85028 7.91948 4.85028H5.59448C5.13201 4.85028 4.68848 5.034 4.36146 5.36102C4.03445 5.68803 3.85073 6.13156 3.85073 6.59403V13.569C3.85073 14.0315 4.03445 14.475 4.36146 14.8021C4.68848 15.1291 5.13201 15.3128 5.59448 15.3128H12.5695C13.032 15.3128 13.4755 15.1291 13.8025 14.8021C14.1295 14.475 14.3132 14.0315 14.3132 13.569V12.4065C14.3132 12.2524 14.3745 12.1045 14.4835 11.9955C14.5925 11.8865 14.7403 11.8253 14.8945 11.8253C15.0486 11.8253 15.1965 11.8865 15.3055 11.9955C15.4145 12.1045 15.4757 12.2524 15.4757 12.4065V13.569C15.4757 14.3398 15.1695 15.079 14.6245 15.6241C14.0795 16.1691 13.3403 16.4753 12.5695 16.4753H5.59448C4.8237 16.4753 4.08448 16.1691 3.53945 15.6241C2.99443 15.079 2.68823 14.3398 2.68823 13.569V6.59403Z" fill="#FBFF2B"/>
</svg>
